Input #0, mov,mp4,m4a,3gp,3g2,mj2, from '/home/hbattu/projects/huberman-gpt/huberman-audio/mp3/tmpixuicw9h.mp4':
  Metadata:
    major_brand     : dash
    minor_version   : 0
    compatible_brands: iso6mp41
    creation_time   : 2022-01-26T16:20:18.000000Z
  Duration: 01:41:02.22, start: 0.000000, bitrate: 129 kb/s
    Stream #0:0(eng): Audio: aac (LC) (mp4a / 0x6134706D), 44100 Hz, stereo, fltp, 0 kb/s (default)
    Metadata:
      creation_time   : 2022-01-26T16:20:18.000000Z
      handler_name    : ISO Media file produced by Google Inc.
Stream mapping:
  Stream #0:0 -> #0:0 (aac (native) -> mp3 (libmp3lame))
Press [q] to stop, [?] for help
[graph_0_in_0_0 @ 0x5639252af640] tb:1/44100 samplefmt:fltp samplerate:44100 chlayout:0x3
Output #0, mp3, to '../huberman-audio/mp3/dFR_wFN23ZY.mp3':
  Metadata:
    major_brand     : dash
    minor_version   : 0
    compatible_brands: iso6mp41
    TSSE            : Lavf58.29.100
    Stream #0:0(eng): Audio: mp3 (libmp3lame), 44100 Hz, stereo, fltp, delay 1105 (default)
    Metadata:
      creation_time   : 2022-01-26T16:20:18.000000Z
      handler_name    : ISO Media file produced by Google Inc.
      encoder         : Lavc58.54.100 libmp3lame
No more output streams to write to, finishing.
size=   94723kB time=01:41:02.23 bitrate= 128.0kbits/s speed=83.2x    
[AVIOContext @ 0x5639251a2900] Statistics: 0 seeks, 146 writeouts
video:0kB audio:94723kB subtitle:0kB other streams:0kB global headers:0kB muxing overhead: 0.000357%
Input file #0 (/home/hbattu/projects/huberman-gpt/huberman-audio/mp3/tmpixuicw9h.mp4):
  Input stream #0:0 (audio): 261078 packets read (96995509 bytes); 261078 frames decoded (267343872 samples); 
  Total: 261078 packets (96995509 bytes) demuxed
Output file #0 (../huberman-audio/mp3/dFR_wFN23ZY.mp3):
  Output stream #0:0 (audio): 232070 frames encoded (267343872 samples); 232071 packets muxed (96996205 bytes); 
  Total: 232071 packets (96996205 bytes) muxed
[AVIOContext @ 0x5639251cbd00] Statistics: 2 seeks, 372 writeouts
[AVIOContext @ 0x5639251ab880] Statistics: 98111013 bytes read, 0 seeks
